<svg width="278" height="304" viewBox="0 0 278 304" fill="none" xmlns="http://www.w3.org/2000/svg">
<path d="M132.427 292.77C205.42 292.77 264.88 266.247 276.611 192.256C288.342 118.265 186.894 152.722 188.78 85.6391C190.666 18.5839 168.313 -20.3953 107.106 11.0655C45.8994 42.5262 55.1622 108.777 46.1212 139.516C28.5385 199.164 -68.3886 292.77 132.427 292.77Z" fill="url(#paint0_linear_699_3418)"/>
<path d="M38.6046 145.9C45.0256 128.068 44.1915 111.437 36.7416 108.752C29.2918 106.067 18.0472 118.346 11.6262 136.178C5.20524 154.009 6.03931 170.641 13.4892 173.325C20.939 176.01 32.1836 163.731 38.6046 145.9Z" fill="url(#paint1_linear_699_3418)"/>
<path d="M251.779 110.367C261.329 102.018 259.87 84.7178 248.52 71.7265C237.17 58.7352 220.228 54.972 210.678 63.3211C201.128 71.6702 202.588 88.9701 213.938 101.961C225.287 114.953 242.23 118.716 251.779 110.367Z" fill="url(#paint2_linear_699_3418)"/>
<path d="M177.327 44.2185C177.327 44.2185 168.091 44.163 166.344 57.1191C164.597 70.0751 167.093 75.818 160.798 81.6718C154.502 87.5256 164.819 90.7993 173.277 85.2507C181.764 79.702 177.327 44.2185 177.327 44.2185Z" fill="#3B2645"/>
<path d="M177.326 44.2185C177.326 44.2185 168.84 48.8239 168.674 61.7799C168.535 73.2379 171.475 82.1157 166.982 87.8308C169.006 87.4424 171.197 86.6101 173.277 85.2506C181.764 79.702 177.326 44.2185 177.326 44.2185Z" fill="#3B2645"/>
<path d="M188.309 73.876L185.341 86.1662L166.344 84.6958C166.344 84.6958 171.17 77.1497 173.721 64.0827L188.309 73.876Z" fill="#FFEDE5"/>
<path d="M177.049 69.659L186.589 81.0614L188.309 73.8759L177.049 69.659Z" fill="#DF845C"/>
<path d="M198.431 47.9639C198.431 47.9639 202.092 53.0964 200.484 58.3954C198.875 63.6943 198.958 64.6098 198.681 66.5796C198.404 68.5216 193.689 77.4272 191.443 77.7601C189.196 78.093 175.552 72.7386 172.861 65.1925C170.171 57.6463 187.92 36.6725 198.431 47.9639Z" fill="#FFEDE5"/>
<path d="M172.945 67.6893L176.661 61.78L178.353 62.4458C178.353 62.4458 179.767 62.0574 180.349 56.703C180.349 56.703 184.592 54.8997 185.397 50.7937C185.397 50.7937 199.596 41.361 200.9 55.8984C200.9 55.8984 203.035 49.2401 196.629 44.7179C190.222 40.1958 182.152 38.8919 177.049 42.6927C171.946 46.4935 163.82 59.6992 172.945 67.6893Z" fill="#3B2645"/>
<path d="M176.933 65.5909C178.508 64.837 178.82 62.209 177.63 59.721C176.44 57.233 174.199 55.8273 172.624 56.5812C171.049 57.335 170.736 59.9631 171.926 62.4511C173.116 64.939 175.358 66.3448 176.933 65.5909Z" fill="#FFEDE5"/>
<path d="M176.356 63.2782C176.273 63.2782 176.189 63.2504 176.134 63.1672L174.359 60.7258C174.276 60.6148 174.304 60.4206 174.415 60.3374C174.525 60.2542 174.72 60.2819 174.803 60.3929L176.578 62.8343C176.661 62.9453 176.633 63.1395 176.522 63.2227C176.467 63.2504 176.411 63.2782 176.356 63.2782Z" fill="#472938"/>
<path d="M188.198 68.8545C188.198 68.8545 190.444 70.4082 194.022 70.5469C194.022 70.5469 190.139 71.3514 188.198 68.8545Z" fill="#472938"/>
<path d="M194.05 67.5783C193.439 67.5783 192.857 67.4951 192.386 67.2454C192.247 67.1622 192.191 66.9957 192.275 66.8848C192.358 66.746 192.524 66.6906 192.635 66.7738C193.8 67.3564 196.046 66.857 196.324 66.5241C196.351 66.2467 195.935 64.9982 195.658 64.1937C195.409 63.4723 195.187 62.8065 195.103 62.3349C194.798 61.0309 196.13 59.4218 196.185 59.3386C196.296 59.2276 196.462 59.1999 196.573 59.3109C196.684 59.4218 196.712 59.5883 196.601 59.6993C196.268 60.1154 195.436 61.3639 195.63 62.2239C195.741 62.6678 195.963 63.3614 196.185 64.0272C196.74 65.6641 196.962 66.4131 196.823 66.746C196.74 66.9402 196.546 67.079 196.157 67.2454C195.714 67.4119 194.882 67.5783 194.05 67.5783Z" fill="#472938"/>
<path d="M200.151 59.6161C200.151 59.6161 200.955 58.9225 200.206 58.4786C199.458 58.0347 198.154 58.1457 197.988 58.5618C197.821 58.978 197.766 59.2277 198.32 59.2554C198.903 59.2831 200.068 58.978 200.151 59.6161Z" fill="#472938"/>
<path d="M185.397 57.3134C185.397 57.3134 187.588 56.1759 189.168 56.6475C190.749 57.1192 191.11 57.785 191.886 57.5908C192.663 57.3689 191.969 56.1204 190.25 55.6488C188.531 55.1772 186.146 55.8985 185.397 57.3134Z" fill="#472938"/>
<path d="M188.337 61.2252C188.004 61.1697 187.782 60.8645 187.81 60.5316L187.893 60.06C187.948 59.7271 188.253 59.5051 188.586 59.5329C188.919 59.5883 189.141 59.8935 189.113 60.2264L189.03 60.6981C188.974 61.031 188.669 61.2807 188.337 61.2252Z" fill="#472938"/>
<path d="M197.405 62.3349C197.128 62.3071 196.961 62.0574 196.989 61.78L197.045 61.3916C197.072 61.1142 197.322 60.9477 197.599 60.9754C197.877 61.0032 198.043 61.2529 198.015 61.5303L197.96 61.9187C197.932 62.1961 197.683 62.3626 197.405 62.3349Z" fill="#472938"/>
<path d="M211.937 288.331C213.13 289.329 214.655 290.633 215.875 288.553C215.737 287.221 215.903 283.06 215.903 283.06L205.42 283.642L206.002 287.998C206.002 287.97 210.745 287.332 211.937 288.331Z" fill="#FFEDE5"/>
<path d="M215.071 300.011C216.763 299.4 220.423 295.71 221.172 294.934C220.923 293.713 220.34 292.492 219.564 292.353C218.427 292.187 216.014 289.857 215.875 288.525C214.627 290.633 213.13 289.329 211.937 288.303C210.745 287.304 206.002 287.942 206.002 287.942C206.002 287.942 204.449 295.905 204.283 300.038C206.64 300.205 213.518 300.593 215.071 300.011Z" fill="#3B2645"/>
<path d="M204.588 302.424C205.78 303.451 214.322 303.146 215.21 302.896C216.097 302.646 220.424 298.374 221.061 297.347C221.339 296.903 221.366 295.905 221.145 294.934C220.396 295.71 216.735 299.4 215.043 300.011C213.49 300.565 206.585 300.205 204.255 300.066C204.255 301.314 204.311 302.202 204.588 302.424Z" fill="#E5E5E5"/>
<path d="M146.099 288.22C148.789 288.58 149.455 290.162 150.287 290.079C151.119 289.995 153.032 288.331 153.032 288.331C153.032 287.11 154.252 283.06 154.252 283.06L143.187 283.42L141.994 288.913C142.022 288.913 143.436 287.859 146.099 288.22Z" fill="#FFEDE5"/>
<path d="M153.642 296.543C154.724 296.127 155.695 295.211 156.305 294.601C156.277 293.602 156 292.464 155.223 292.021C153.892 291.272 153.06 288.331 153.06 288.331C153.06 288.331 151.146 289.968 150.314 290.079C149.482 290.19 148.789 288.608 146.127 288.22C143.437 287.859 142.05 288.913 142.05 288.913C141.052 291.799 140.636 296.265 140.525 298.845C141.884 299.123 144.102 299.456 147.181 299.456C152.755 299.428 151.923 297.181 153.642 296.543Z" fill="#3B2645"/>
<path d="M140.497 300.76C140.636 301.204 141.052 302.424 147.264 302.424C153.476 302.424 153.282 299.345 153.698 298.346C154.142 297.32 155.805 296.681 156.083 296.182C156.194 295.96 156.305 295.322 156.277 294.601C155.695 295.211 154.696 296.127 153.615 296.543C151.895 297.181 152.755 299.456 147.125 299.456C144.047 299.456 141.828 299.123 140.469 298.845C140.441 299.9 140.441 300.649 140.497 300.76Z" fill="#E5E5E5"/>
<path d="M204.782 139.294C204.782 139.294 212.353 156.606 214.378 170.284C216.402 183.961 212.076 221.026 212.714 224.189C213.352 227.351 216.902 237.061 217.429 250.101C217.928 263.14 215.903 283.032 215.903 283.032C215.903 283.032 209.746 285.778 205.42 283.614C205.42 283.614 202.064 262.419 200.206 253.513C198.348 244.608 198.348 234.176 196.296 229.293C194.244 224.411 188.919 190.092 187.394 184.571C187.394 184.571 181.764 212.148 176.55 224.521C171.336 236.895 169.894 238.199 168.313 245.329C166.732 252.459 155.584 278.26 154.28 283.06C154.28 283.06 148.262 286.111 143.215 283.42C143.215 283.42 146.182 251.904 151.507 239.42C156.832 226.935 157.47 226.602 158.662 217.502C159.855 208.403 154.946 168.647 168.258 143.234C168.23 143.206 186.894 139.156 204.782 139.294Z" fill="#FF8A00"/>
<path d="M187.394 140.238C188.614 145.564 204.727 169.812 204.727 169.812L195.325 139.516L187.394 140.238Z" fill="#543753"/>
<path d="M180.349 177.663C180.349 177.663 182.79 183.434 194.937 182.629C194.937 182.629 188.281 184.1 188.891 191.951L187.394 184.599L185.702 192.367C185.702 192.367 186.146 184.655 177.465 181.991L183.15 182.158C183.178 182.13 180.377 180.132 180.349 177.663Z" fill="#543753"/>
<path d="M162.378 85.5558C162.378 85.5558 158.274 88.9682 146.21 107.501C134.146 126.033 137.252 127.032 139.221 129.751C141.163 132.47 155.778 147.784 156.86 149.171C157.941 150.586 161.935 154.803 164.07 153.11C166.206 151.418 165.512 146.563 167.897 144.732C170.282 142.873 172.279 141.014 172.473 140.016C172.667 139.017 172.168 138.185 171.946 138.185C171.724 138.185 169.312 140.265 167.842 140.987C166.372 141.708 162.933 144.205 162.878 144.205C162.822 144.205 149.76 124.507 149.76 124.507L164.292 107.168L162.378 85.5558Z" fill="#FFEDE5"/>
<path d="M162.656 91.8258C162.656 91.8258 157.275 98.4009 158.718 114.048L164.347 107.362L162.656 91.8258Z" fill="#DF845C"/>
<path d="M147.846 139.378L153.31 129.806L149.954 124.701L147.042 138.518L147.846 139.378Z" fill="#DF845C"/>
<path d="M182.124 82.2821C185.674 83.1422 195.02 88.3579 200.899 99.2887C206.779 110.219 204.699 112.162 202.452 115.296L201.593 129.335L205.364 141.07L168.258 143.234C168.258 143.234 171.142 131.138 169.644 127.309C168.147 123.481 151.895 101.841 160.908 87.4978C165.484 80.1459 182.124 82.2821 182.124 82.2821Z" fill="#FFEDE5"/>
<path d="M201.593 129.307L202.453 115.269C204.699 112.162 206.807 110.192 200.899 99.261C199.457 96.5977 197.821 94.2673 196.102 92.242C195.797 96.5145 194.909 101.619 192.829 106.918C188.142 118.931 169.339 118.21 164.32 117.793C166.732 122.399 169.062 125.922 169.589 127.254C169.866 127.947 170.005 128.918 170.033 130.028C184.26 131.388 201.593 129.307 201.593 129.307Z" fill="#FF8A00"/>
<path d="M182.429 82.3655C182.318 82.3378 182.207 82.31 182.124 82.2823C182.124 82.2823 181.875 82.2545 181.459 82.1991C175.385 83.8636 170.643 87.6367 167.481 93.3518C166.427 89.6342 165.845 86.1663 166.205 83.5307C166.15 83.5585 166.095 83.5862 166.039 83.5862C165.9 83.6417 165.762 83.6972 165.623 83.7527C165.124 83.9469 164.652 84.1688 164.209 84.4185C161.103 87.7754 160.021 94.0454 160.992 103.145C161.435 107.223 162.212 111.135 162.905 114.131C162.905 114.409 162.905 114.686 162.905 114.964C163.044 115.241 163.155 115.491 163.294 115.768C163.349 115.907 163.432 116.046 163.488 116.184C163.82 116.85 164.153 117.488 164.486 118.126C164.236 117.211 163.848 115.796 163.46 114.076C163.46 110.83 163.737 106.197 164.958 101.453C165.568 99.0114 166.372 96.8197 167.343 94.8222C170.615 105.448 177.326 117.377 177.742 118.099L178.547 119.514L178.269 117.905C178.242 117.738 175.33 101.342 177.354 91.6872C178.63 85.6115 180.571 83.4475 181.791 82.6707C182.124 82.5875 182.429 82.5042 182.762 82.4487C182.651 82.421 182.54 82.3933 182.429 82.3655ZM164.403 101.342C163.432 105.087 163.072 108.777 162.961 111.773C161.103 102.923 159.383 88.8297 165.623 83.9191C165.346 86.7212 166.011 90.3001 167.121 94.1009C165.984 96.2648 165.096 98.6785 164.403 101.342ZM176.772 91.604C175.108 99.5663 176.744 112.023 177.437 116.434C175.496 112.8 170.338 102.868 167.703 94.1009C170.587 88.58 174.83 84.9179 180.405 83.0868C179.185 84.363 177.77 86.8322 176.772 91.604Z" fill="#FF8A00"/>
<path d="M183.65 128.447H169.866C169.7 128.447 169.589 128.336 169.589 128.169C169.589 128.003 169.7 127.892 169.866 127.892H183.65C183.816 127.892 183.927 128.003 183.927 128.169C183.927 128.336 183.788 128.447 183.65 128.447Z" fill="#472938"/>
<path d="M187.893 142.069L195.824 141.597L191.748 130.139C189.806 130.25 187.699 130.361 185.452 130.417C186.201 134.883 187.005 139.017 187.893 142.069Z" fill="#DF845C"/>
<path d="M182.207 103.284C182.207 103.284 182.679 108.666 183.455 115.629C184.371 115.269 185.286 114.853 186.145 114.353L182.207 103.284Z" fill="#DF845C"/>
<path d="M183.483 115.63C184.01 120.235 184.676 125.506 185.48 130.444C187.699 130.389 189.834 130.278 191.775 130.167L186.173 114.381C185.286 114.853 184.398 115.269 183.483 115.63Z" fill="#543753"/>
<path d="M170.088 143.095L170.865 143.04C170.865 143.04 172.113 141.958 172.362 140.543C172.029 141.209 171.17 142.124 170.088 143.095Z" fill="#DF845C"/>
<path d="M182.734 82.4487C182.734 82.4487 194.41 84.8069 196.074 90.4388C197.766 96.0706 199.014 129.307 199.014 129.307C199.014 129.307 210.689 162.46 211.937 167.509C213.185 172.559 215.792 180.687 215.959 182.324C216.125 183.961 214.517 187.734 213.962 188.344C213.407 188.955 210.079 190.203 209.33 190.37C208.582 190.536 204.061 187.568 204.283 186.957C204.505 186.347 206.308 185.265 206.308 185.265L206.64 183.018C206.64 183.018 203.396 176.692 203.617 173.474C203.839 170.284 203.34 168.203 202.259 166.261C201.177 164.319 188.17 135.244 186.839 130.167C185.508 125.09 181.653 102.424 181.736 98.1514C181.819 93.8789 182.734 82.4487 182.734 82.4487Z" fill="#FFEDE5"/>
<path d="M109.852 42.6096L112.181 55.4824C112.486 57.1748 113.651 58.5897 115.26 59.2277L120.418 61.253C120.418 61.253 114.982 69.3818 104.083 71.6844C93.1843 73.9594 87.2217 64.0828 87.2217 64.0828L91.8254 60.6427C92.8515 59.8658 93.4062 58.6451 93.323 57.369L92.491 45.4116L109.852 42.6096Z" fill="#FFEDE5"/>
<path d="M93.1289 54.3727C93.1289 54.3727 106.191 62.0853 109.852 42.6096L92.5188 45.3839L93.1289 54.3727Z" fill="#DF845C"/>
<path d="M113.606 38.5222C114.098 36.4344 113.53 34.5137 112.338 34.2323C111.145 33.9508 109.779 35.4152 109.287 37.503C108.795 39.5909 109.362 41.5115 110.555 41.793C111.748 42.0744 113.113 40.61 113.606 38.5222Z" fill="#FFEDE5"/>
<path d="M90.7188 44.1929C91.7799 43.58 91.771 41.5772 90.6988 39.7196C89.6267 37.8619 87.8973 36.8528 86.8361 37.4657C85.775 38.0786 85.784 40.0814 86.8561 41.939C87.9283 43.7967 89.6576 44.8058 90.7188 44.1929Z" fill="#DF845C"/>
<path d="M110.739 39.1695C110.684 39.1695 110.656 39.1695 110.601 39.1417C110.462 39.0585 110.407 38.892 110.49 38.7811L111.46 36.8945C111.544 36.7558 111.71 36.7003 111.821 36.7836C111.96 36.8668 112.015 37.0332 111.932 37.1442L110.961 39.0308C110.934 39.114 110.85 39.1695 110.739 39.1695Z" fill="#472938"/>
<path d="M89.8565 41.7774C89.801 41.7774 89.7178 41.7496 89.6623 41.6941L87.7765 39.9463C87.6656 39.8353 87.6656 39.6689 87.7488 39.5579C87.8597 39.4469 88.0261 39.4469 88.137 39.5302L90.0229 41.278C90.1338 41.389 90.1338 41.5554 90.0506 41.6664C89.9951 41.7496 89.9119 41.7774 89.8565 41.7774Z" fill="#472938"/>
<path d="M85.7519 29.7367C85.7519 29.7367 90.3002 46.66 92.0196 49.1014C93.7113 51.515 98.9529 53.7622 99.8403 53.901C100.728 54.0397 104.25 53.679 105.054 52.9854C105.858 52.2919 110.185 47.7142 110.85 44.7457C111.488 41.7772 111.655 26.1023 108.909 23.2448C106.136 20.3872 84.3653 22.7176 85.7519 29.7367Z" fill="#FFEDE5"/>
<path d="M100.007 41.7772C99.3133 41.7772 98.0931 41.4166 97.9267 41.3333C97.7048 41.2224 97.6771 41.2224 97.7603 36.3396C97.7603 36.0067 97.7603 35.757 97.7603 35.6737C97.7325 35.4518 97.0669 34.3143 96.4845 33.3711C96.4013 33.2323 96.4291 33.0659 96.5677 32.9827C96.7064 32.8994 96.8728 32.9272 96.956 33.0659C97.4552 33.8704 98.3427 35.2576 98.3427 35.646C98.3427 35.7292 98.3427 35.9789 98.3427 36.3118C98.3149 37.3106 98.2872 40.1681 98.3149 40.834C98.6477 40.9449 99.5906 41.1946 100.062 41.1669C100.45 41.1391 101.06 40.6675 101.338 40.3901C101.449 40.2791 101.615 40.2791 101.726 40.3901C101.837 40.5011 101.837 40.6675 101.726 40.7785C101.643 40.8617 100.783 41.694 100.09 41.7218C100.062 41.7772 100.034 41.7772 100.007 41.7772Z" fill="#472938"/>
<path d="M96.5676 44.7178L104.277 43.6636C104.277 43.6636 103.695 47.2147 100.949 47.8251C98.2039 48.4354 96.5676 44.7178 96.5676 44.7178Z" fill="white"/>
<path d="M104.222 34.8416C103.75 34.8971 103.335 34.5642 103.279 34.0925L103.224 33.4545C103.168 32.9828 103.501 32.5667 103.972 32.5112C104.444 32.4557 104.86 32.7886 104.915 33.2602L104.971 33.8983C105.054 34.37 104.693 34.7861 104.222 34.8416Z" fill="#472938"/>
<path d="M93.4338 36.7833C92.9623 36.8666 92.5186 36.5614 92.4354 36.0898L92.3244 35.4517C92.2412 34.98 92.5463 34.5361 93.0178 34.4529C93.4892 34.3697 93.933 34.6749 94.0162 35.1465L94.1271 35.7846C94.2103 36.2562 93.9052 36.7001 93.4338 36.7833Z" fill="#472938"/>
<path d="M101.338 30.9297C101.338 30.9297 105.331 29.5148 107.467 30.7633C107.467 30.7633 107.106 29.0154 104.915 29.0987C102.724 29.1819 101.31 29.4871 101.088 30.0142C100.866 30.5413 101.338 30.9297 101.338 30.9297Z" fill="#472938"/>
<path d="M95.403 32.0117C95.403 32.0117 91.1876 31.6233 89.4404 33.3712C89.4404 33.3712 89.3572 31.5678 91.4926 31.124C93.6281 30.6801 95.0702 30.6246 95.403 31.0685C95.7635 31.5401 95.403 32.0117 95.403 32.0117Z" fill="#472938"/>
<path d="M88.442 39.1415L87.6378 32.1503C87.6378 32.1503 94.2659 32.8438 99.2579 27.7946C104.25 22.7453 107.716 25.5751 107.716 25.5751L111.183 35.0355L112.015 34.1755C112.015 34.1755 112.209 25.3532 112.015 25.048C111.821 24.7428 110.351 23.8273 110.351 23.8273C110.351 23.8273 109.88 15.2269 99.2024 13.5346C88.5252 11.8422 85.6964 23.0227 82.5903 23.4666L83.8383 25.048C83.8383 25.048 83.4223 26.3242 83.4501 27.9056C83.4778 29.4869 86.8612 37.477 86.8612 37.477L88.442 39.1415Z" fill="#3B2645"/>
<path d="M73.6325 68.6879C73.6325 68.6879 67.3371 70.4912 67.6144 83.6138C67.6144 83.6138 61.3745 92.991 60.6812 104.199C60.6812 104.199 45.428 90.1889 44.901 88.4688C44.3464 86.721 44.6515 80.5898 44.2909 79.0916C43.9304 77.5935 42.5992 76.0121 42.7656 73.9037C42.932 71.7952 43.2925 68.8267 43.0984 68.5215C42.9043 68.2163 39.9923 68.5492 39.4931 70.9629C38.9939 73.3765 38.8552 76.1231 38.8552 76.1231C38.8552 76.1231 34.1684 77.2883 33.586 78.1484C33.0036 79.0084 33.3364 81.2833 33.3364 81.2833C33.3364 81.2833 33.4473 88.9405 34.2238 89.8005C35.0003 90.6605 38.7166 92.5471 39.4931 93.0742C40.2696 93.6013 49.0333 113.771 52.8327 118.348C56.6321 122.926 60.1542 124.202 63.4545 123.12C66.7547 122.038 75.8789 109.72 78.8186 104.005C81.7583 98.2899 80.6767 69.3538 73.6325 68.6879Z" fill="#FFEDE5"/>
<path d="M80.2051 87.7477C76.8494 86.9154 74.6585 87.4147 74.6585 87.4147C74.6585 87.4147 79.1236 103.561 72.218 114.048C74.9359 110.442 77.4873 106.558 78.7908 104.033C80.0387 101.564 80.5657 94.7389 80.2051 87.7477Z" fill="#DF845C"/>
<path d="M60.6533 104.199L63.2602 106.114L60.7643 103.006L60.6533 104.199Z" fill="#DF845C"/>
<path d="M35.5272 78.0097C35.5272 78.0097 40.2696 78.3703 40.5192 78.6478C40.7688 78.9252 41.157 88.7185 40.2696 89.3844C39.3544 90.0779 34.8062 89.967 34.8062 89.967C34.8062 89.967 40.2418 90.4664 40.8242 90.2167C41.4066 89.967 42.4605 86.5268 42.6546 84.7513C42.8487 82.9757 41.7394 78.2871 41.3234 78.1761C40.9074 78.0652 35.5272 78.0097 35.5272 78.0097Z" fill="#DF845C"/>
<path d="M133.897 274.542C134.091 268.439 134.729 259.478 134.618 251.183C134.451 239.253 133.259 225.825 132.676 221.914C132.066 218.002 133.481 199.886 133.481 199.886L108.41 203.381C109.02 205.323 113.568 222.358 113.762 229.793C113.984 237.228 123.108 271.851 123.469 274.626C123.524 274.986 123.552 275.375 123.608 275.763C125.909 276.041 130.319 276.263 133.897 274.542Z" fill="#FFEDE5"/>
<path d="M126.131 283.393C126.131 283.393 125.854 280.424 129.182 279.703C132.51 278.981 134.035 280.646 134.035 280.646C133.841 279.342 133.841 277.206 133.924 274.542C130.347 276.263 125.937 276.041 123.663 275.763C123.885 277.927 123.94 280.507 123.719 282.616C124.079 283.559 126.131 283.393 126.131 283.393Z" fill="white"/>
<path d="M122.637 296.043C126.187 297.902 125.161 302.064 129.598 303.09C133.286 303.95 138.888 303.451 141.079 303.201C141.662 303.146 142.133 302.674 142.244 302.091C142.3 301.675 142.355 301.12 142.327 300.538C139.554 300.787 133.037 301.287 130.43 300.649C127.102 299.844 126.298 296.432 124.634 295.489C123.386 294.795 122.581 293.879 122.249 293.463C122.193 294.046 122.11 294.545 122.082 294.906C121.971 295.405 122.221 295.849 122.637 296.043Z" fill="#3B2645"/>
<path d="M141.079 296.82C140.414 295.877 139.443 293.852 138.445 291.549C137.862 293.63 131.206 292.659 130.347 292.437C129.487 292.215 126.159 283.393 126.159 283.393C126.159 283.393 124.107 283.531 123.718 282.588C123.663 283.06 123.607 283.531 123.524 283.947C123.191 285.723 122.581 290.578 122.249 293.463C122.581 293.879 123.386 294.767 124.634 295.489C126.325 296.432 127.102 299.844 130.43 300.649C133.037 301.287 139.554 300.787 142.327 300.538C142.244 299.428 141.967 298.096 141.079 296.82Z" fill="#FF8A00"/>
<path d="M130.319 292.437C131.179 292.659 137.835 293.63 138.417 291.549C136.309 286.722 134.007 280.646 134.007 280.646C134.007 280.646 132.482 278.981 129.154 279.703C125.826 280.424 126.104 283.392 126.104 283.392C126.104 283.392 129.459 292.243 130.319 292.437Z" fill="#3B2645"/>
<path d="M124.838 222.784C127.471 222.375 129.524 221.515 129.423 220.864C129.322 220.213 127.105 220.017 124.471 220.427C121.838 220.836 119.785 221.696 119.887 222.347C119.988 222.998 122.204 223.194 124.838 222.784Z" fill="#E0855C"/>
<path d="M62.8445 275.014C62.8722 268.883 63.205 259.977 63.5933 251.682C64.2866 236.95 67.5036 223.994 67.5036 222.413C67.5036 216.143 68.2247 196.695 68.613 197.167L91.8255 202.798C91.1599 204.713 84.8091 220.804 84.3376 228.239C83.8661 235.674 73.7158 272.711 73.2444 275.458C73.1889 275.819 73.1334 276.179 73.078 276.595C70.7761 276.762 66.3666 276.845 62.8445 275.014Z" fill="#FFEDE5"/>
<path d="M70.3047 284.114C70.3047 284.114 70.693 281.145 67.3927 280.313C64.0925 279.481 62.5117 281.09 62.5117 281.09C62.7613 279.786 62.8445 277.65 62.8445 274.986C66.3666 276.817 70.7762 276.734 73.078 276.54C72.8007 278.676 72.6343 281.256 72.8007 283.393C72.3292 284.336 70.3047 284.114 70.3047 284.114Z" fill="white"/>
<path d="M73.3553 296.876C69.7223 298.624 70.6375 302.813 66.1725 303.673C62.4562 304.394 56.8819 303.728 54.691 303.395C54.1086 303.312 53.6371 302.84 53.5816 302.23C53.5262 301.814 53.4984 301.259 53.5539 300.677C56.3272 301.009 62.8168 301.731 65.4514 301.204C68.8071 300.51 69.7223 297.125 71.414 296.238C72.6897 295.572 73.5217 294.712 73.8822 294.296C73.9377 294.878 73.9654 295.378 73.9932 295.766C74.0486 296.238 73.7713 296.681 73.3553 296.876Z" fill="#3B2645"/>
<path d="M54.9129 297.042C55.6062 296.127 56.6601 294.129 57.7416 291.854C58.2686 293.963 64.9245 293.213 65.812 293.019C66.6994 292.825 70.3047 284.114 70.3047 284.114C70.3047 284.114 72.3292 284.336 72.773 283.392C72.8007 283.864 72.8562 284.336 72.9116 284.752C73.189 286.555 73.6327 291.41 73.8823 294.295C73.5218 294.712 72.6898 295.572 71.414 296.238C69.6946 297.125 68.8071 300.482 65.4514 301.204C62.8445 301.758 56.3273 301.037 53.554 300.676C53.6372 299.594 53.9977 298.263 54.9129 297.042Z" fill="#FF8A00"/>
<path d="M65.7842 293.019C64.8967 293.213 58.2408 293.963 57.7139 291.854C59.988 287.082 62.484 281.09 62.484 281.09C62.484 281.09 64.0647 279.481 67.365 280.313C70.6652 281.145 70.2769 284.114 70.2769 284.114C70.2769 284.114 66.6716 292.825 65.7842 293.019Z" fill="#3B2645"/>
<path d="M78.5757 224.782C78.6987 224.135 76.6759 223.207 74.0577 222.709C71.4396 222.211 69.2174 222.333 69.0945 222.98C68.9715 223.627 70.9943 224.555 73.6125 225.053C76.2306 225.551 78.4528 225.43 78.5757 224.782Z" fill="#E0855C"/>
<path d="M130.43 147.007C130.43 147.007 135.089 176.526 133.48 199.886C133.48 199.886 124.467 206.627 103.418 202.604L100.173 184.044L94.8482 202.715C94.8482 202.715 73.0223 204.019 67.1707 195.558C67.1707 195.558 70.3045 160.546 76.9327 146.397C83.5609 132.248 128.267 135.41 130.43 147.007Z" fill="#3B2645"/>
<path d="M100.173 184.044C100.173 184.044 97.5661 181.741 97.2887 181.52C97.0114 181.298 94.5986 171.754 94.5986 171.754L97.261 194.254L100.173 184.044Z" fill="#3B2645"/>
<path d="M112.098 200.385C107.411 200.385 104.028 200.024 103.945 200.024C103.862 200.024 103.806 199.941 103.834 199.858C103.834 199.775 103.917 199.719 104 199.747C104.194 199.775 122.803 201.744 133.647 196.279C133.702 196.251 133.786 196.279 133.841 196.335C133.869 196.39 133.841 196.473 133.786 196.529C127.435 199.719 118.532 200.385 112.098 200.385Z" fill="white"/>
<path d="M95.708 199.83C95.6803 199.83 95.708 199.83 95.708 199.83C75.5183 198.138 67.5035 192.506 67.4203 192.45C67.3648 192.395 67.3371 192.312 67.3925 192.256C67.448 192.201 67.5312 192.173 67.5867 192.228C67.6699 192.284 75.6293 197.86 95.7357 199.553C95.8189 199.553 95.8744 199.636 95.8744 199.691C95.8189 199.775 95.7635 199.83 95.708 199.83Z" fill="white"/>
<path d="M116.896 59.8657C116.896 59.8657 112.625 68.4383 102.835 69.0764C93.0457 69.7145 89.2463 62.6122 89.2463 62.6122L73.6326 68.7157C73.6326 68.7157 76.4613 78.7588 74.6587 87.4424C74.6587 87.4424 78.7909 102.202 78.7909 104.061C78.7909 105.919 82.2575 113.798 82.4794 115.657C82.7013 117.516 76.9328 146.424 76.9328 146.424C76.9328 146.424 104.499 154.525 110.906 154.248C117.312 153.971 130.43 147.007 130.43 147.007C130.43 147.007 129.126 122.787 130.43 116.822C131.733 110.858 136.614 94.9053 136.614 94.9053C136.614 94.9053 132.482 74.0147 133.647 65.6917L116.896 59.8657Z" fill="#FF8A00"/>
<path d="M133.453 94.5724C133.314 94.5724 133.203 94.4891 133.175 94.3504C130.735 84.3629 130.263 64.8039 130.263 64.6097C130.263 64.4433 130.374 64.3323 130.541 64.3323C130.707 64.3323 130.818 64.4433 130.818 64.6097C130.818 64.8039 131.29 84.3074 133.73 94.2394C133.758 94.3782 133.675 94.5446 133.536 94.5724C133.48 94.5724 133.453 94.5724 133.453 94.5724Z" fill="#472938"/>
<path d="M75.574 90.9935C75.5185 90.9935 75.4353 90.9658 75.3798 90.938C75.2689 90.8271 75.2412 90.6606 75.3521 90.5496C80.2331 85.0287 75.7404 68.0222 75.6849 67.8557C75.6572 67.717 75.7404 67.5505 75.879 67.5228C76.0177 67.495 76.1841 67.5783 76.2118 67.717C76.406 68.4383 80.8155 85.1674 75.7404 90.9103C75.7126 90.9658 75.6294 90.9935 75.574 90.9935Z" fill="#472938"/>
<path d="M101.338 72.1003C91.6313 72.1003 86.6116 63.7774 86.5562 63.6664C86.473 63.5277 86.5284 63.3612 86.6671 63.278C86.8058 63.1948 86.9722 63.2502 87.0554 63.389C87.1108 63.4722 92.3524 72.1836 102.475 71.49C110.684 70.9351 115.121 65.6639 116.591 63.9161C117.09 63.3057 117.229 63.167 117.451 63.2225C117.562 63.2502 117.645 63.3335 117.673 63.4444C117.728 63.5832 117.645 63.7496 117.479 63.7774C117.451 63.7774 117.451 63.7774 117.423 63.7774C117.34 63.8606 117.173 64.0825 117.007 64.2767C115.509 66.0523 110.961 71.4622 102.503 72.0448C102.114 72.1003 101.726 72.1003 101.338 72.1003Z" fill="#472938"/>
<path d="M133.647 65.6917C133.647 65.6917 143.742 65.1369 145.877 81.0615C145.877 81.0615 156.249 100.759 157.442 107.057C158.634 113.354 156.499 122.232 153.892 126.782C151.285 131.332 142.605 146.036 141.024 148.283C139.443 150.53 139.693 151.113 135.56 151.418C135.56 151.418 132.51 151.973 131.9 152.25C131.29 152.528 127.601 154.498 126.852 154.22C126.103 153.971 125.382 152.972 125.521 152.778C125.687 152.556 129.542 150.475 129.542 150.475C129.542 150.475 123.33 151.529 122.748 151.501C122.165 151.474 121.306 150.17 121.306 150.17C121.306 150.17 119.281 149.254 119.032 148.533C118.782 147.812 121.001 146.369 121.001 146.369C121.001 146.369 119.669 146.036 119.198 145.342C118.726 144.649 126.963 140.238 127.962 140.293C128.96 140.349 135.727 141.209 135.727 141.209C135.727 141.209 144.712 112.3 144.796 110.497C144.879 108.694 137.668 101.175 136.559 94.9053C136.614 94.9053 131.983 73.0992 133.647 65.6917Z" fill="#FFEDE5"/>
<path d="M120.917 150.253C120.806 150.253 120.723 150.197 120.668 150.086C120.612 149.948 120.668 149.781 120.806 149.726L127.074 146.868C127.213 146.813 127.379 146.868 127.435 147.007C127.49 147.146 127.435 147.312 127.296 147.368L121.028 150.225C121.001 150.253 120.973 150.253 120.917 150.253Z" fill="#472938"/>
<path d="M121.056 146.674C120.945 146.674 120.862 146.619 120.806 146.535C120.723 146.397 120.779 146.23 120.917 146.147L127.046 142.873C127.185 142.79 127.351 142.846 127.435 142.984C127.518 143.123 127.462 143.289 127.324 143.373L121.195 146.646C121.139 146.646 121.084 146.674 121.056 146.674Z" fill="#472938"/>
<defs>
<linearGradient id="paint0_linear_699_3418" x1="277.555" y1="292.77" x2="-82.921" y2="267.023" gradientUnits="userSpaceOnUse">
<stop stop-color="#C150F6"/>
<stop offset="1" stop-color="#EEA4CE"/>
</linearGradient>
<linearGradient id="paint1_linear_699_3418" x1="50.2308" y1="113.613" x2="4.57031" y2="191.724" gradientUnits="userSpaceOnUse">
<stop stop-color="#C150F6"/>
<stop offset="1" stop-color="#EEA4CE"/>
</linearGradient>
<linearGradient id="paint2_linear_699_3418" x1="269.071" y1="95.2493" x2="220.542" y2="133.009" gradientUnits="userSpaceOnUse">
<stop stop-color="#C150F6"/>
<stop offset="1" stop-color="#EEA4CE"/>
</linearGradient>
</defs>
</svg>
