<svg width="16" height="15" viewBox="0 0 16 15" fill="none" xmlns="http://www.w3.org/2000/svg">
<path fill-rule="evenodd" clip-rule="evenodd" d="M5.7316 9.56775C8.49835 9.56775 10.8631 9.987 10.8631 11.6617C10.8631 13.3365 8.5141 13.7678 5.7316 13.7678C2.9641 13.7678 0.600098 13.3523 0.600098 11.6767C0.600098 10.0012 2.94835 9.56775 5.7316 9.56775Z" stroke="#7B6F72" stroke-width="1.2" stroke-linecap="round" stroke-linejoin="round"/>
<path fill-rule="evenodd" clip-rule="evenodd" d="M5.73139 7.17751C3.91489 7.17751 2.44189 5.70526 2.44189 3.88876C2.44189 2.07226 3.91489 0.600006 5.73139 0.600006C7.54714 0.600006 9.02014 2.07226 9.02014 3.88876C9.02689 5.69851 7.56439 7.17076 5.75464 7.17751H5.73139Z" stroke="#7B6F72" stroke-width="1.2" stroke-linecap="round" stroke-linejoin="round"/>
<path d="M10.9004 6.32386C12.1011 6.15511 13.0259 5.12461 13.0281 3.87736C13.0281 2.64811 12.1319 1.62811 10.9566 1.43536" stroke="#7B6F72" stroke-width="1.2" stroke-linecap="round" stroke-linejoin="round"/>
<path d="M12.4844 9.21179C13.6476 9.38504 14.4599 9.79304 14.4599 10.633C14.4599 11.2113 14.0774 11.5863 13.4594 11.821" stroke="#7B6F72" stroke-width="1.2" stroke-linecap="round" stroke-linejoin="round"/>
</svg>
